<mxfile host="app.diagrams.net" agent="Mozilla/5.0 (Windows NT 10.0; Win64; x64) AppleWebKit/537.36 (KHTML, like Gecko) Chrome/122.0.0.0 Safari/537.36" version="24.7.12">
  <diagram name="Trang-1" id="mTAyE8ov1XycSRFEkVgL">
    <mxGraphModel dx="1050" dy="557" grid="1" gridSize="10" guides="1" tooltips="1" connect="1" arrows="1" fold="1" page="1" pageScale="1" pageWidth="827" pageHeight="1169" math="0" shadow="0">
      <root>
        <mxCell id="0" />
        <mxCell id="1" parent="0" />
        <mxCell id="khxOmThZWsIG-eRezaMW-1" value="Cửa hàng" style="shape=umlActor;verticalLabelPosition=bottom;verticalAlign=top;html=1;outlineConnect=0;" vertex="1" parent="1">
          <mxGeometry x="150" y="160" width="30" height="60" as="geometry" />
        </mxCell>
        <mxCell id="khxOmThZWsIG-eRezaMW-2" value="" style="endArrow=classic;html=1;rounded=0;exitX=0.5;exitY=0.5;exitDx=0;exitDy=0;exitPerimeter=0;entryX=0;entryY=0.5;entryDx=0;entryDy=0;" edge="1" parent="1" source="khxOmThZWsIG-eRezaMW-1" target="khxOmThZWsIG-eRezaMW-3">
          <mxGeometry width="50" height="50" relative="1" as="geometry">
            <mxPoint x="240" y="340" as="sourcePoint" />
            <mxPoint x="240" y="180" as="targetPoint" />
          </mxGeometry>
        </mxCell>
        <mxCell id="khxOmThZWsIG-eRezaMW-3" value="Xem menu" style="ellipse;whiteSpace=wrap;html=1;" vertex="1" parent="1">
          <mxGeometry x="240" y="160" width="120" height="60" as="geometry" />
        </mxCell>
        <mxCell id="khxOmThZWsIG-eRezaMW-4" value="extend" style="endArrow=open;endSize=12;dashed=1;html=1;rounded=0;exitX=0.273;exitY=0.997;exitDx=0;exitDy=0;exitPerimeter=0;" edge="1" parent="1" source="khxOmThZWsIG-eRezaMW-5" target="khxOmThZWsIG-eRezaMW-3">
          <mxGeometry width="160" relative="1" as="geometry">
            <mxPoint x="450" y="410" as="sourcePoint" />
            <mxPoint x="610" y="410" as="targetPoint" />
          </mxGeometry>
        </mxCell>
        <mxCell id="khxOmThZWsIG-eRezaMW-5" value="Thêm món" style="ellipse;whiteSpace=wrap;html=1;" vertex="1" parent="1">
          <mxGeometry x="330" y="70" width="120" height="60" as="geometry" />
        </mxCell>
        <mxCell id="khxOmThZWsIG-eRezaMW-6" value="Xóa món" style="ellipse;whiteSpace=wrap;html=1;" vertex="1" parent="1">
          <mxGeometry x="330" y="250" width="120" height="60" as="geometry" />
        </mxCell>
        <mxCell id="khxOmThZWsIG-eRezaMW-7" value="Chỉnh sửa thông tin món" style="ellipse;whiteSpace=wrap;html=1;" vertex="1" parent="1">
          <mxGeometry x="414" y="170" width="120" height="60" as="geometry" />
        </mxCell>
        <mxCell id="khxOmThZWsIG-eRezaMW-10" value="Chỉnh giá" style="ellipse;whiteSpace=wrap;html=1;" vertex="1" parent="1">
          <mxGeometry x="610" y="105" width="120" height="40" as="geometry" />
        </mxCell>
        <mxCell id="khxOmThZWsIG-eRezaMW-11" value="Chỉnh tên món" style="ellipse;whiteSpace=wrap;html=1;" vertex="1" parent="1">
          <mxGeometry x="610" y="155" width="120" height="40" as="geometry" />
        </mxCell>
        <mxCell id="khxOmThZWsIG-eRezaMW-12" value="Chỉnh trọng lượng" style="ellipse;whiteSpace=wrap;html=1;" vertex="1" parent="1">
          <mxGeometry x="610" y="205" width="120" height="40" as="geometry" />
        </mxCell>
        <mxCell id="khxOmThZWsIG-eRezaMW-13" value="Chỉnh trạng thái" style="ellipse;whiteSpace=wrap;html=1;" vertex="1" parent="1">
          <mxGeometry x="610" y="255" width="120" height="40" as="geometry" />
        </mxCell>
        <mxCell id="khxOmThZWsIG-eRezaMW-15" value="extend" style="endArrow=open;endSize=12;dashed=1;html=1;rounded=0;exitX=0.057;exitY=0.377;exitDx=0;exitDy=0;exitPerimeter=0;entryX=1;entryY=0.5;entryDx=0;entryDy=0;" edge="1" parent="1" source="khxOmThZWsIG-eRezaMW-7" target="khxOmThZWsIG-eRezaMW-3">
          <mxGeometry width="160" relative="1" as="geometry">
            <mxPoint x="373" y="140" as="sourcePoint" />
            <mxPoint x="338" y="173" as="targetPoint" />
          </mxGeometry>
        </mxCell>
        <mxCell id="khxOmThZWsIG-eRezaMW-16" value="extend" style="endArrow=open;endSize=12;dashed=1;html=1;rounded=0;exitX=0.267;exitY=0.117;exitDx=0;exitDy=0;exitPerimeter=0;entryX=0.783;entryY=0.963;entryDx=0;entryDy=0;entryPerimeter=0;" edge="1" parent="1" source="khxOmThZWsIG-eRezaMW-6" target="khxOmThZWsIG-eRezaMW-3">
          <mxGeometry width="160" relative="1" as="geometry">
            <mxPoint x="431" y="203" as="sourcePoint" />
            <mxPoint x="370" y="200" as="targetPoint" />
          </mxGeometry>
        </mxCell>
        <mxCell id="khxOmThZWsIG-eRezaMW-17" value="extend" style="endArrow=open;endSize=12;dashed=1;html=1;rounded=0;exitX=0;exitY=0.5;exitDx=0;exitDy=0;entryX=0.693;entryY=0.063;entryDx=0;entryDy=0;entryPerimeter=0;" edge="1" parent="1" source="khxOmThZWsIG-eRezaMW-10" target="khxOmThZWsIG-eRezaMW-7">
          <mxGeometry width="160" relative="1" as="geometry">
            <mxPoint x="431" y="203" as="sourcePoint" />
            <mxPoint x="370" y="200" as="targetPoint" />
          </mxGeometry>
        </mxCell>
        <mxCell id="khxOmThZWsIG-eRezaMW-18" value="extend" style="endArrow=open;endSize=12;dashed=1;html=1;rounded=0;exitX=0;exitY=0.5;exitDx=0;exitDy=0;entryX=0.947;entryY=0.29;entryDx=0;entryDy=0;entryPerimeter=0;" edge="1" parent="1" source="khxOmThZWsIG-eRezaMW-11" target="khxOmThZWsIG-eRezaMW-7">
          <mxGeometry width="160" relative="1" as="geometry">
            <mxPoint x="441" y="213" as="sourcePoint" />
            <mxPoint x="380" y="210" as="targetPoint" />
          </mxGeometry>
        </mxCell>
        <mxCell id="khxOmThZWsIG-eRezaMW-19" value="extend" style="endArrow=open;endSize=12;dashed=1;html=1;rounded=0;exitX=0;exitY=0.5;exitDx=0;exitDy=0;entryX=0.96;entryY=0.743;entryDx=0;entryDy=0;entryPerimeter=0;" edge="1" parent="1" source="khxOmThZWsIG-eRezaMW-12" target="khxOmThZWsIG-eRezaMW-7">
          <mxGeometry width="160" relative="1" as="geometry">
            <mxPoint x="620" y="185" as="sourcePoint" />
            <mxPoint x="544" y="210" as="targetPoint" />
          </mxGeometry>
        </mxCell>
        <mxCell id="khxOmThZWsIG-eRezaMW-20" value="extend" style="endArrow=open;endSize=12;dashed=1;html=1;rounded=0;exitX=0;exitY=0.5;exitDx=0;exitDy=0;entryX=0.747;entryY=0.983;entryDx=0;entryDy=0;entryPerimeter=0;" edge="1" parent="1" source="khxOmThZWsIG-eRezaMW-13" target="khxOmThZWsIG-eRezaMW-7">
          <mxGeometry width="160" relative="1" as="geometry">
            <mxPoint x="620" y="235" as="sourcePoint" />
            <mxPoint x="539" y="225" as="targetPoint" />
          </mxGeometry>
        </mxCell>
      </root>
    </mxGraphModel>
  </diagram>
</mxfile>
